<svg width="75" height="72" viewBox="0 0 75 72" fill="none" xmlns="http://www.w3.org/2000/svg">
<rect y="0.203064" width="75" height="70.977" rx="10" fill="#E0F7EF"/>
<g clip-path="url(#clip0)">
<path d="M35.2334 44.7876H14.5091C13.6756 44.7876 13 44.1483 13 43.3596V33.8604C13 33.2496 13.4104 32.7065 14.0212 32.509L19.0362 30.8874L21.8991 24.1142C22.3574 23.0298 23.4673 22.3188 24.7014 22.3188H35.2334V44.7876Z" fill="#FAF7F7"/>
<path d="M13 41.3122V43.3586C13 44.1473 13.6756 44.7867 14.5091 44.7867H35.2334V41.3122H13Z" fill="#EFE2DD"/>
<path d="M22.3081 31.2227L24.6034 25.4213C24.6623 25.2726 24.8125 25.1739 24.9803 25.1739H31.8128C32.0351 25.1739 32.2153 25.3445 32.2153 25.5548V31.3562C32.2153 31.5666 32.0351 31.7371 31.8128 31.7371H22.685C22.4041 31.7371 22.2097 31.4717 22.3081 31.2227Z" fill="#B3DAFE"/>
<path d="M63 41.9314V25.1749C63 23.5975 61.6487 22.3188 59.9819 22.3188H35.2334V44.7877H59.9819C61.6487 44.7876 63 43.5088 63 41.9314Z" fill="#CBC4CC"/>
<path d="M59.982 22.3178H56.9638C58.6307 22.3178 59.982 23.5966 59.982 25.1739V41.9304C59.982 43.5078 58.6307 44.7866 56.9638 44.7866H59.982C61.6488 44.7866 63 43.5078 63 41.9304V25.174C63 23.5966 61.6488 22.3178 59.982 22.3178Z" fill="#BAAFB9"/>
<path d="M63 41.9305V41.3122H35.2334V44.7867H59.9819C61.6487 44.7867 63 43.5079 63 41.9305Z" fill="#EFE2DD"/>
<path d="M59.982 41.9305C59.982 43.5079 58.6307 44.7867 56.9638 44.7867H59.982C61.6488 44.7867 63 43.5079 63 41.9305V41.3122H59.982V41.9305Z" fill="#E1D3CE"/>
<path d="M27.6683 46.7218C29.6324 44.8631 29.6324 41.8495 27.6683 39.9907C25.7042 38.1319 22.5197 38.132 20.5556 39.9907C18.5915 41.8495 18.5915 44.8631 20.5556 46.7218C22.5197 48.5806 25.7042 48.5806 27.6683 46.7218Z" fill="#918291"/>
<path d="M55.6358 45.5145C56.8943 43.172 55.9079 40.3075 53.4326 39.1165C50.9573 37.9256 47.9305 38.8591 46.672 41.2016C45.4136 43.5441 46.4 46.4085 48.8753 47.5995C51.3505 48.7905 54.3773 47.857 55.6358 45.5145Z" fill="#918291"/>
<path d="M16.0181 37.3605H13V34.5996H16.0181C16.5736 34.5996 17.0241 35.0258 17.0241 35.5517V36.4086C17.0241 36.9343 16.5737 37.3605 16.0181 37.3605Z" fill="#F58A97"/>
<path d="M24.7342 43.7835C24.9734 43.4605 24.8907 43.0152 24.5494 42.7888C24.2081 42.5625 23.7376 42.6408 23.4984 42.9638C23.2592 43.2868 23.342 43.7321 23.6832 43.9584C24.0245 44.1848 24.4951 44.1064 24.7342 43.7835Z" fill="#A79BA7"/>
<path d="M51.7048 43.8639C51.9994 43.5851 51.9994 43.133 51.7048 42.8542C51.4102 42.5754 50.9326 42.5754 50.638 42.8542C50.3434 43.133 50.3434 43.5851 50.638 43.8639C50.9326 44.1427 51.4102 44.1427 51.7048 43.8639Z" fill="#A79BA7"/>
<path d="M56.7048 33.2601L49.8712 30.267V29.6111C50.8802 29.2803 51.5242 28.3161 51.4062 27.3054C51.2893 26.3026 50.4353 25.4944 49.3759 25.3837C48.7213 25.316 48.0671 25.513 47.5799 25.926C47.0923 26.3393 46.8127 26.9314 46.8127 27.5505C46.8127 27.9449 47.1505 28.2645 47.5672 28.2645C47.9839 28.2645 48.3217 27.9448 48.3217 27.5505C48.3217 27.3337 48.4158 27.1346 48.5866 26.9899C48.7571 26.8453 48.9786 26.7786 49.2102 26.8033C49.5676 26.8405 49.8667 27.1238 49.9061 27.462C49.9483 27.8226 49.726 28.153 49.3657 28.2653C48.7654 28.4523 48.362 28.9883 48.362 29.5991V30.267L41.5285 33.2601C41.0186 33.4833 40.7468 34.0021 40.8675 34.5215C40.9883 35.0409 41.4652 35.4035 42.0271 35.4035H56.206C56.768 35.4035 57.2449 35.0409 57.3657 34.5215C57.4864 34.0021 57.2147 33.4833 56.7048 33.2601ZM43.4883 33.9754L49.1167 31.5102L54.7451 33.9754H43.4883Z" fill="white"/>
<path d="M32.2154 35.3074H29.6018C29.185 35.3074 28.8473 34.9877 28.8473 34.5934C28.8473 34.1989 29.1851 33.8793 29.6018 33.8793H32.2154C32.6322 33.8793 32.9698 34.199 32.9698 34.5934C32.9698 34.9877 32.6321 35.3074 32.2154 35.3074Z" fill="#EFE2DD"/>
</g>
<defs>
<clipPath id="clip0">
<rect width="50" height="47.318" fill="white" transform="translate(13 11.5594)"/>
</clipPath>
</defs>
</svg>
