<svg width="35" height="56" viewBox="0 0 35 56" fill="none" xmlns="http://www.w3.org/2000/svg">
<path d="M17.494 4.2361L16.3231 3.5804L15.1512 4.2361L13.9798 3.5804L12.8089 4.2361L11.638 3.5804L10.4672 4.2361L9.02945 3.43001L9.56429 2.47626L10.4672 2.98212L11.638 2.32642L12.8089 2.98212L13.9798 2.32642L15.1512 2.98212L16.3231 2.32642L17.494 2.98212L18.6643 2.32642L19.8357 2.98267L21.0077 2.32696L22.1807 2.98267L23.3532 2.32696L24.5284 2.98267L25.4368 2.47571L25.9695 3.43056L24.5284 4.23556L23.3532 3.57985L22.1807 4.23556L21.0077 3.57985L19.8357 4.23556L18.6643 3.5804L17.494 4.2361Z" fill="#55CB95"/>
<path d="M9.06007 7.03609L7.38882 6.09874L7.92367 5.14499L9.06007 5.7821L10.4655 4.99515L11.8705 5.7821L13.2759 4.99515L14.6814 5.7821L16.0874 4.99515L17.4934 5.7821L18.8973 4.99515L20.3027 5.7821L21.7093 4.99569L23.117 5.78265L24.5246 4.99569L25.9339 5.78265L27.0774 5.14444L27.6101 6.09929L25.9339 7.03554L24.5246 6.24859L23.117 7.03554L21.7093 6.24859L20.3027 7.03609L18.8973 6.24913L17.4934 7.03609L16.0874 6.24913L14.6814 7.03609L13.2759 6.24913L11.8705 7.03609L10.4655 6.24913L9.06007 7.03609Z" fill="#55CB95"/>
<path d="M31.1719 21.875H33.8751L30.3592 16.9531H29.5313V14.2188H26.7969V8.75H29.353L24.9364 0.546875H10.0636L5.64705 8.75H8.20314V14.2188H5.46876V16.9531H4.64025L1.12439 21.875H3.82814V33.3594H2.73439V34.4531H32.2656V33.3594H31.1719V21.875ZM28.4375 16.9531H27.3438V15.3125H28.4375V16.9531ZM25.1563 15.3125H26.25V16.9531H25.1563V15.3125ZM10.7177 1.64062H24.2829L27.5226 7.65625H7.47798L10.7177 1.64062ZM9.84376 16.9531H8.75001V15.3125H9.84376V16.9531ZM6.56251 15.3125H7.65626V16.9531H6.56251V15.3125ZM4.92189 21.875H7.10939V20.7812H3.25009L5.20298 18.0469H10.3906V17.5H10.9375V15.3125H14.2188V14.2188H9.29689V8.75H25.7031V14.2188H20.7813V15.3125H24.0625V17.5H24.6094V18.0469H29.7965L31.7494 20.7812H27.8906V21.875H30.0781V33.3594H28.9844V31.7188H27.8906V33.3594H23.5156V31.7188H22.4219V33.3594H20.7813V24.6094H14.2188V33.3594H12.5781V31.7188H11.4844V33.3594H7.10939V31.7188H6.01564V33.3594H4.92189V21.875ZM19.6875 33.3594H15.3125V25.7031H19.6875V33.3594Z" fill="#55CB95"/>
<path d="M17.5 23.5156C19.0077 23.5156 20.2344 22.289 20.2344 20.7812C20.2344 19.2735 19.0077 18.0469 17.5 18.0469C15.9923 18.0469 14.7656 19.2735 14.7656 20.7812C14.7656 22.289 15.9923 23.5156 17.5 23.5156ZM15.96 21.3281H16.9531V22.3213C16.4899 22.1561 16.1252 21.7913 15.96 21.3281ZM18.0469 22.3213V21.3281H19.04C18.8748 21.7913 18.5101 22.1561 18.0469 22.3213ZM19.04 20.2344H18.0469V19.2412C18.5101 19.4064 18.8748 19.7712 19.04 20.2344ZM16.9531 19.2412V20.2344H15.96C16.1252 19.7712 16.4899 19.4064 16.9531 19.2412Z" fill="#55CB95"/>
<path d="M9.84375 21.3281H8.75V28.4375H9.84375V21.3281Z" fill="#55CB95"/>
<path d="M26.25 21.3281H25.1562V28.4375H26.25V21.3281Z" fill="#55CB95"/>
<path d="M17.5 28.9844H16.4062V30.0781H17.5V28.9844Z" fill="#55CB95"/>
<path d="M24.6094 9.84375H21.3281V13.125H24.6094V9.84375ZM23.5156 12.0312H22.4219V10.9375H23.5156V12.0312Z" fill="#55CB95"/>
<path d="M10.3906 13.125H13.6719V9.84375H10.3906V13.125ZM11.4844 10.9375H12.5781V12.0312H11.4844V10.9375Z" fill="#55CB95"/>
<path d="M34.4531 33.3594H33.3594V34.4531H34.4531V33.3594Z" fill="#55CB95"/>
<path d="M1.64062 33.3594H0.546875V34.4531H1.64062V33.3594Z" fill="#55CB95"/>
<path d="M11.4844 32.2656H7.10938C6.20484 32.2656 5.46875 31.5295 5.46875 30.625C5.46875 29.8523 6.00578 29.202 6.72656 29.0292C7.02789 28.3511 7.70984 27.8906 8.47656 27.8906C8.76258 27.8906 9.04094 27.9546 9.29688 28.0788C9.55281 27.9546 9.83117 27.8906 10.1172 27.8906C10.8839 27.8906 11.5659 28.3511 11.8672 29.0292C12.588 29.202 13.125 29.8523 13.125 30.625C13.125 31.5295 12.3889 32.2656 11.4844 32.2656Z" fill="#55CB95"/>
<path d="M27.8906 32.2656H23.5156C22.6111 32.2656 21.875 31.5295 21.875 30.625C21.875 29.8523 22.412 29.202 23.1328 29.0292C23.4341 28.3511 24.1161 27.8906 24.8828 27.8906C25.1688 27.8906 25.4472 27.9546 25.7031 28.0788C25.9591 27.9546 26.2374 27.8906 26.5234 27.8906C27.2902 27.8906 27.9721 28.3511 28.2734 29.0292C28.9942 29.202 29.5312 29.8523 29.5312 30.625C29.5312 31.5295 28.7952 32.2656 27.8906 32.2656Z" fill="#55CB95"/>
<path d="M26.7887 22.4219H26.6175C26.2631 22.4219 25.9115 22.3043 25.6277 22.0916L17.5 15.9961L9.3718 22.0916C9.08852 22.3043 8.73742 22.4219 8.3825 22.4219H8.21133C7.30242 22.4219 6.5625 21.682 6.5625 20.7731C6.5625 20.2677 6.80094 19.7816 7.19906 19.4715L16.1859 12.4824C16.9334 11.9006 18.0666 11.9006 18.8147 12.4824L27.802 19.472C28.1991 19.7816 28.4375 20.2683 28.4375 20.7731C28.4375 21.682 27.6976 22.4219 26.7887 22.4219Z" fill="#55CB95"/>
<path d="M7.682 51V46.931H3.106V51H2.105V42.004H3.106V46.034H7.682V42.004H8.67V51H7.682ZM10.359 47.737C10.359 46.5497 10.5713 45.6917 10.996 45.163C11.4207 44.6343 12.1357 44.37 13.141 44.37C14.155 44.37 14.87 44.6343 15.286 45.163C15.7107 45.6917 15.923 46.5497 15.923 47.737C15.923 48.9243 15.7237 49.7867 15.325 50.324C14.9263 50.8613 14.1983 51.13 13.141 51.13C12.0837 51.13 11.3557 50.8613 10.957 50.324C10.5583 49.7867 10.359 48.9243 10.359 47.737ZM11.36 47.724C11.36 48.6687 11.4727 49.3317 11.698 49.713C11.932 50.0943 12.413 50.285 13.141 50.285C13.8777 50.285 14.3587 50.0987 14.584 49.726C14.8093 49.3447 14.922 48.6773 14.922 47.724C14.922 46.7707 14.7963 46.1163 14.545 45.761C14.2937 45.397 13.8257 45.215 13.141 45.215C12.465 45.215 11.997 45.397 11.737 45.761C11.4857 46.1163 11.36 46.7707 11.36 47.724ZM18.4881 51H17.5131V44.5H18.4751V44.955C19.1251 44.565 19.7578 44.37 20.3731 44.37C21.1791 44.37 21.7425 44.591 22.0631 45.033C22.3491 44.8597 22.7175 44.708 23.1681 44.578C23.6275 44.4393 24.0305 44.37 24.3771 44.37C25.2438 44.37 25.8245 44.604 26.1191 45.072C26.4225 45.5313 26.5741 46.3633 26.5741 47.568V51H25.5991V47.594C25.5991 46.6927 25.5125 46.0773 25.3391 45.748C25.1658 45.41 24.7975 45.241 24.2341 45.241C23.9481 45.241 23.6535 45.2843 23.3501 45.371C23.0468 45.449 22.8128 45.527 22.6481 45.605L22.4011 45.722C22.5138 46.008 22.5701 46.6407 22.5701 47.62V51H21.5951V47.646C21.5951 46.71 21.5085 46.0773 21.3351 45.748C21.1705 45.41 20.8021 45.241 20.2301 45.241C19.9528 45.241 19.6668 45.2843 19.3721 45.371C19.0861 45.449 18.8651 45.527 18.7091 45.605L18.4881 45.722V51ZM32.8003 50.194L33.1773 50.155L33.2033 50.922C32.2153 51.0607 31.3703 51.13 30.6683 51.13C29.7323 51.13 29.0693 50.8613 28.6793 50.324C28.2893 49.778 28.0943 48.933 28.0943 47.789C28.0943 45.5097 29 44.37 30.8113 44.37C31.6867 44.37 32.341 44.617 32.7743 45.111C33.2077 45.5963 33.4243 46.3633 33.4243 47.412L33.3723 48.153H29.0823C29.0823 48.8723 29.2123 49.4053 29.4723 49.752C29.7323 50.0987 30.183 50.272 30.8243 50.272C31.4743 50.272 32.133 50.246 32.8003 50.194ZM32.4493 47.373C32.4493 46.5757 32.3193 46.0123 32.0593 45.683C31.808 45.3537 31.392 45.189 30.8113 45.189C30.2393 45.189 29.806 45.3623 29.5113 45.709C29.2253 46.0557 29.078 46.6103 29.0693 47.373H32.4493Z" fill="#55CB95"/>
</svg>
