<svg width="75" height="72" viewBox="0 0 75 72" fill="none" xmlns="http://www.w3.org/2000/svg">
<rect y="0.203064" width="75" height="70.977" rx="10" fill="#E0F7EF"/>
<g clip-path="url(#clip0)">
<path d="M63 17.4741C63 20.7411 60.2178 23.3889 56.7861 23.3889H16.1064C16.0859 23.3889 16.0586 23.3889 16.0254 23.388C15.1992 23.3676 14.4541 23.0414 13.9102 22.5229C13.7334 22.3547 13.5771 22.1662 13.4473 21.961C13.1631 21.5147 13 20.9916 13 20.4315C13 18.7985 14.3906 17.4741 16.1064 17.4741C16.0791 17.4741 16.0518 17.4732 16.0234 17.4732C15.8389 17.4686 15.6592 17.4482 15.4844 17.415C15.4834 17.415 15.4824 17.415 15.4805 17.4141C14.873 17.2958 14.3311 17.0093 13.9102 16.6082C13.7334 16.44 13.5771 16.2514 13.4473 16.0463C13.1631 15.5999 13 15.0768 13 14.5168C13 12.8837 14.3906 11.5594 16.1064 11.5594H56.7861C57.1807 11.5594 57.5664 11.5945 57.9395 11.662C59.1934 11.8847 60.3135 12.4669 61.1797 13.2913C62.3047 14.3615 63 15.8402 63 17.4741Z" fill="#ACA6D6"/>
<path d="M63 17.4741C63 20.7411 60.2178 23.3889 56.7861 23.3889H16.1064C16.0859 23.3889 16.0586 23.3889 16.0254 23.388C15.1992 23.3676 14.4541 23.0414 13.9102 22.5229C13.7334 22.3547 13.5771 22.1662 13.4473 21.961H53.7686C55.8096 21.961 57.6221 21.023 58.7549 19.5757C59.543 18.5693 58.7031 17.2643 57.3789 17.2708C16.1064 17.4741 57.3789 17.2708 16.1064 17.4741C16.0791 17.4741 16.0518 17.4732 16.0234 17.4732C15.8389 17.4686 15.6592 17.4482 15.4844 17.415C15.4834 17.415 15.4824 17.415 15.4805 17.4141C14.873 17.2958 14.3311 17.0093 13.9102 16.6082C13.7334 16.44 13.5771 16.2514 13.4473 16.0463H53.7686C55.374 16.0463 56.8369 15.4659 57.9395 14.5131C58.8174 13.7552 58.8301 12.4355 57.9541 11.6749C57.9512 11.6721 57.9444 11.6666 57.9395 11.662C59.1934 11.8847 60.3135 12.4669 61.1797 13.2913C62.3047 14.3615 63 15.8402 63 17.4741Z" fill="#978ECB"/>
<path d="M59.8932 29.3036C61.609 29.3036 63 30.6277 63 32.261C63 33.8943 61.609 35.2184 59.8932 35.2184H19.2138C15.7819 35.2184 13 32.5702 13 29.3036C13 26.037 15.7819 23.3889 19.2138 23.3889H59.8932C61.609 23.3889 63 24.713 63 26.3463C63 27.9796 61.609 29.3036 59.8932 29.3036Z" fill="#7ACAA6"/>
<path d="M59.8931 29.3036C59.9482 29.3036 59.9984 29.3023 60.0442 29.3C60.0625 29.2992 60.0806 29.2976 60.0988 29.2965C60.1013 29.2963 60.104 29.2962 60.1064 29.296C61.731 29.1913 63 27.8877 63 26.3463C63 24.7246 61.6203 23.3881 59.8931 23.3889L59.9818 24.9181C59.9818 26.5514 58.5908 27.8755 56.875 27.8755H16.1956C16.0215 27.8755 14.6729 27.8684 13.1885 27.8546C13.0661 28.3171 13.0004 28.8011 13 29.2996C13.0592 29.3012 13.1181 29.3036 13.1775 29.3036H18.9971H58.3527C59.24 29.3036 59.9771 29.9754 59.9818 30.8151V30.8329C59.9818 32.4662 58.5908 33.7903 56.875 33.7903H16.1956C15.8012 33.7903 15.4158 33.7537 15.0418 33.6868C16.1446 34.6386 17.608 35.2184 19.2138 35.2184H59.8932C61.609 35.2184 63 33.8943 63 32.261C63 30.6277 61.609 29.3036 59.8931 29.3036Z" fill="#57BE92"/>
<path d="M63 41.1331C63 44.4001 60.2178 47.0479 56.7861 47.0479H16.1064C16.0859 47.0479 16.0586 47.0479 16.0254 47.047C15.1992 47.0266 14.4541 46.7004 13.9102 46.1819C13.7334 46.0137 13.5771 45.8252 13.4473 45.62C13.1631 45.1737 13 44.6506 13 44.0905C13 42.4575 14.3906 41.1331 16.1064 41.1331C16.0791 41.1331 16.0518 41.1322 16.0234 41.1322C15.8389 41.1276 15.6592 41.1072 15.4844 41.074C15.4834 41.074 15.4824 41.074 15.4805 41.0731C14.873 40.9548 14.3311 40.6683 13.9102 40.2672C13.7334 40.099 13.5771 39.9105 13.4473 39.7053C13.1631 39.2589 13 38.7358 13 38.1758C13 36.5427 14.3906 35.2184 16.1064 35.2184H56.7861C57.1807 35.2184 57.5664 35.2535 57.9395 35.321C59.1934 35.5437 60.3135 36.1259 61.1797 36.9503C62.3047 38.0205 63 39.4992 63 41.1331Z" fill="#ACA6D6"/>
<path d="M63 41.1331C63 44.4001 60.2178 47.0479 56.7861 47.0479H16.1064C16.0859 47.0479 16.0586 47.0479 16.0254 47.047C15.1992 47.0266 14.4541 46.7004 13.9102 46.1819C13.7334 46.0137 13.5771 45.8252 13.4473 45.62H53.7686C55.8096 45.62 57.6221 44.682 58.7549 43.2347C59.543 42.2283 58.7031 40.9234 57.3789 40.9298C16.1064 41.1331 57.3789 40.9298 16.1064 41.1331C16.0791 41.1331 16.0518 41.1322 16.0234 41.1322C15.8389 41.1276 15.6592 41.1072 15.4844 41.074C15.4834 41.074 15.4824 41.074 15.4805 41.0731C14.873 40.9548 14.3311 40.6683 13.9102 40.2672C13.7334 40.099 13.5771 39.9105 13.4473 39.7053H53.7686C55.374 39.7053 56.8369 39.1249 57.9395 38.1721C58.8174 37.4142 58.8301 36.0945 57.9541 35.3339C57.9512 35.3311 57.9444 35.3256 57.9395 35.321C59.1934 35.5437 60.3135 36.1259 61.1797 36.9503C62.3047 38.0205 63 39.4992 63 41.1331Z" fill="#978ECB"/>
<path d="M59.8932 52.9626C61.609 52.9626 63 54.2867 63 55.92C63 57.5533 61.609 58.8774 59.8932 58.8774H19.2138C15.7819 58.8774 13 56.2293 13 52.9626C13 49.696 15.7819 47.0479 19.2138 47.0479H59.8932C61.609 47.0479 63 48.372 63 50.0053C63 51.6386 61.609 52.9626 59.8932 52.9626Z" fill="#7ACAA6"/>
<path d="M59.8931 52.9626C59.9482 52.9626 59.9984 52.9614 60.0442 52.959C60.0625 52.9582 60.0806 52.9566 60.0988 52.9555C60.1013 52.9553 60.104 52.9553 60.1064 52.955C61.731 52.8503 63 51.5467 63 50.0053C63 48.3836 61.6203 47.0471 59.8931 47.0479L59.9818 48.5771C59.9818 50.2104 58.5908 51.5345 56.875 51.5345H16.1956C16.0215 51.5345 14.6729 51.5274 13.1885 51.5136C13.0661 51.9761 13.0004 52.4601 13 52.9586C13.0592 52.9602 13.1181 52.9626 13.1775 52.9626H18.9971H58.3527C59.24 52.9626 59.9771 53.6344 59.9818 54.4741V54.4919C59.9818 56.1252 58.5908 57.4493 56.875 57.4493H16.1956C15.8012 57.4493 15.4158 57.4127 15.0418 57.3458C16.1446 58.2976 17.608 58.8774 19.2138 58.8774H59.8932C61.609 58.8774 63 57.5533 63 55.92C63 54.2867 61.609 52.9626 59.8931 52.9626Z" fill="#57BE92"/>
</g>
<defs>
<clipPath id="clip0">
<rect width="50" height="47.318" fill="white" transform="translate(13 11.5594)"/>
</clipPath>
</defs>
</svg>
