<svg width="75" height="72" viewBox="0 0 75 72" fill="none" xmlns="http://www.w3.org/2000/svg">
<rect y="0.478928" width="75" height="70.977" rx="10" fill="#E0F7EF"/>
<g clip-path="url(#clip0)">
<path d="M27.6086 30.1457H48.3915V34.3118H27.6086V30.1457Z" fill="#918291"/>
<path d="M59.91 50.234H16.0914C14.1694 50.234 12.7139 48.5895 13.0489 46.7968L15.0446 36.1181C15.3059 34.7202 16.5885 33.7013 18.0871 33.7013H57.9142C59.4129 33.7013 60.6954 34.7201 60.9568 36.1181L62.9526 46.7968C63.2876 48.5896 61.832 50.234 59.91 50.234Z" fill="#ACA6D6"/>
<path d="M62.9518 46.7978L60.956 36.119C60.6948 34.7211 59.4122 33.7023 57.9136 33.7023H57.5535C57.7419 34.0007 57.8768 34.3346 57.944 34.6938C58.0911 35.4666 58.2381 36.2394 58.3851 37.0122C59.5544 43.1578 54.5635 48.8076 47.9651 48.808C36.4561 48.8085 24.9472 48.8092 13.4382 48.8097C13.9734 49.6555 14.9499 50.235 16.0907 50.235H59.9094C61.8312 50.2349 63.2869 48.5905 62.9518 46.7978V46.7978Z" fill="#978ECB"/>
<path d="M16.2503 46.8423L18.0971 36.9607C18.1309 36.7792 18.2977 36.6469 18.4926 36.6469L57.5075 36.647C57.7023 36.647 57.869 36.7793 57.903 36.9608L59.7498 46.8423C59.7932 47.0751 59.6041 47.2885 59.3544 47.2885H16.6457C16.396 47.2885 16.2067 47.0751 16.2503 46.8423V46.8423Z" fill="#FAF7F7"/>
<path d="M58.4757 40.0255C58.0809 43.0502 56.2363 45.7101 53.5747 47.2885H59.3543C59.6041 47.2885 59.7933 47.0751 59.7497 46.8423L58.4757 40.0255Z" fill="#F3EAE6"/>
<path d="M34.2343 45.2289C34.0479 45.2289 33.8596 45.2076 33.6727 45.164C32.6737 44.9311 31.976 44.0736 31.976 43.0787V40.8197C31.976 39.8247 32.6737 38.9672 33.6727 38.7345C34.364 38.5731 35.0762 38.7152 35.6269 39.1237C36.1779 39.5323 36.4939 40.1464 36.4939 40.8086V43.0901C36.4939 43.7523 36.1779 44.3664 35.6269 44.775C35.2252 45.0729 34.7372 45.2289 34.2343 45.2289ZM34.235 40.0945C34.1725 40.0945 34.1051 40.1016 34.0329 40.1184C33.7136 40.1928 33.482 40.4877 33.482 40.8197V43.0787C33.482 43.4107 33.7136 43.7057 34.0329 43.7801C34.3596 43.8561 34.59 43.7332 34.6981 43.653C34.8824 43.5164 34.988 43.3112 34.988 43.09V40.8085C34.988 40.5873 34.8823 40.3821 34.6981 40.2455C34.6138 40.183 34.4555 40.0945 34.235 40.0945V40.0945Z" fill="#918291"/>
<path d="M41.7643 45.2293C41.578 45.2293 41.3897 45.208 41.2028 45.1643C40.2038 44.9316 39.506 44.0741 39.506 43.0791V40.82C39.506 39.8251 40.2038 38.9676 41.2028 38.7349C41.8941 38.5736 42.6064 38.7156 43.1571 39.1241C43.708 39.5327 44.024 40.1468 44.024 40.809V43.0905C44.024 43.7527 43.708 44.3668 43.1571 44.7753C42.7553 45.0733 42.2673 45.2293 41.7643 45.2293ZM41.765 40.0948C41.7025 40.0948 41.635 40.102 41.5628 40.1188C41.2435 40.1932 41.0119 40.4881 41.0119 40.82V43.0791C41.0119 43.4111 41.2435 43.7061 41.5628 43.7805C41.8897 43.8564 42.12 43.7336 42.2281 43.6534C42.4124 43.5168 42.518 43.3115 42.518 43.0904V40.8089C42.518 40.5877 42.4123 40.3824 42.2281 40.2459C42.1439 40.1834 41.9855 40.0948 41.765 40.0948V40.0948Z" fill="#918291"/>
<path d="M38.4758 44.941C38.7699 44.6628 38.7699 44.2116 38.4758 43.9333C38.1818 43.6551 37.7051 43.6551 37.4111 43.9333C37.117 44.2116 37.117 44.6628 37.4111 44.941C37.7051 45.2193 38.1818 45.2193 38.4758 44.941Z" fill="#918291"/>
<path d="M27.6086 30.756H48.3915V33.7014H27.6086V30.756Z" fill="#918291"/>
<path d="M45.3795 30.756H48.3915V33.7014H45.3795V30.756Z" fill="#7A6D79"/>
<path d="M51.9778 30.756H24.0221C23.4521 30.756 22.9901 30.3188 22.9901 29.7793V26.7967H53.0098V29.7793C53.0098 30.3187 52.5478 30.756 51.9778 30.756Z" fill="#ACA6D6"/>
<path d="M49.9979 27.8104V29.7792C49.9979 30.3187 49.5358 30.7559 48.9658 30.7559H51.9778C52.5479 30.7559 53.0099 30.3187 53.0099 29.7792V27.8104H49.9979Z" fill="#978ECB"/>
<path d="M61.3913 20.3803L61.308 20.7528L60.2679 25.4294C59.9576 26.8185 58.6685 27.8104 57.1755 27.8104H18.8245C17.3315 27.8104 16.0424 26.8185 15.7321 25.4294L14.6077 20.4411L61.3913 20.3803Z" fill="#F3EAE6"/>
<path d="M61.308 20.7528L60.2678 25.4294C59.9576 26.8185 58.6684 27.8104 57.1755 27.8104H54.1635C55.6564 27.8104 56.9456 26.8185 57.2557 25.4294L58.3039 20.7528H61.308Z" fill="#E1D3CE"/>
<path d="M61.3651 17.714H14.6349C13.7598 17.714 13.0504 18.3942 13.0504 19.2333C13.0504 20.0725 13.7598 20.7527 14.6349 20.7527H61.3651C62.2401 20.7527 62.9495 20.0724 62.9495 19.2333C62.9495 18.3942 62.2401 17.714 61.3651 17.714Z" fill="#ACA6D6"/>
<path d="M61.3651 17.715H58.3531C59.2282 17.715 59.9375 18.3952 59.9375 19.2343C59.9375 20.0735 59.2281 20.7537 58.3531 20.7537H61.3651C62.2401 20.7537 62.9495 20.0735 62.9495 19.2343C62.9495 18.3952 62.2401 17.715 61.3651 17.715V17.715Z" fill="#978ECB"/>
<path d="M24.6676 53.2746H18.9031C18.3324 53.2746 17.8697 52.8367 17.8697 52.2966V50.234H25.701V52.2965C25.701 52.8367 25.2383 53.2746 24.6676 53.2746V53.2746Z" fill="#918291"/>
<path d="M22.689 50.234V52.2965C22.689 52.8366 22.2263 53.2745 21.6556 53.2745H24.6676C25.2383 53.2745 25.701 52.8366 25.701 52.2965V50.234H22.689Z" fill="#7A6D79"/>
<path d="M57.0969 53.2746H51.3324C50.7617 53.2746 50.299 52.8367 50.299 52.2966V50.234H58.1303V52.2965C58.1303 52.8367 57.6677 53.2746 57.0969 53.2746V53.2746Z" fill="#918291"/>
<path d="M55.1183 50.234V52.2965C55.1183 52.8366 54.6556 53.2745 54.0849 53.2745H57.0969C57.6676 53.2745 58.1303 52.8366 58.1303 52.2965V50.234H55.1183Z" fill="#7A6D79"/>
</g>
<defs>
<clipPath id="clip0">
<rect width="50" height="47.318" fill="white" transform="translate(13 11.8353)"/>
</clipPath>
</defs>
</svg>
