<svg width="48" height="56" viewBox="0 0 48 56" fill="none" xmlns="http://www.w3.org/2000/svg">
<path d="M37.0781 5.46875H28.875V10.9375H37.0781V5.46875Z" fill="#55CB95"/>
<path d="M24.5 26.7969C20.58 26.7969 17.3906 23.6075 17.3906 19.6875C17.3906 15.7675 20.58 12.5781 24.5 12.5781C28.42 12.5781 31.6094 15.7675 31.6094 19.6875C31.6094 23.6075 28.42 26.7969 24.5 26.7969Z" fill="#55CB95"/>
<path d="M37.625 30.5364V5.46875L36.4115 0.546875H12.5885L11.375 5.40148V30.5364L10.8281 32.177V34.4531H38.1719V32.177L37.625 30.5364ZM12.4688 27.8906V11.4844H36.5312V27.8906H34.3438V28.9844H36.5312V30.0781H12.4688V28.9844H33.25V27.8906H12.4688ZM18.4844 6.01562V10.3906H12.4688V6.01562H18.4844ZM36.5312 10.3906H19.5781V6.01562H36.5312V10.3906ZM35.5573 1.64062L36.3776 4.92188H12.6224L13.4427 1.64062H35.5573ZM37.0781 33.3594H11.9219V32.3542L12.3162 31.1719H36.6844L37.0781 32.3542V33.3594Z" fill="#55CB95"/>
<path d="M24.5 14.7656C21.7864 14.7656 19.5781 16.9734 19.5781 19.6875C19.5781 22.4016 21.7864 24.6094 24.5 24.6094C26.1412 24.6094 27.6702 23.7748 28.5802 22.4219H31.6094V21.3281H28.875V18.0469H31.6094V16.9531H28.5802C27.6702 15.6002 26.1412 14.7656 24.5 14.7656ZM24.5 23.5156C22.3891 23.5156 20.6719 21.7979 20.6719 19.6875C20.6719 17.5771 22.3891 15.8594 24.5 15.8594C25.8415 15.8594 27.0911 16.573 27.7812 17.722V21.6535C27.0911 22.802 25.8415 23.5156 24.5 23.5156Z" fill="#55CB95"/>
<path d="M21.7656 8.75H22.96C23.1864 9.38492 23.788 9.84375 24.5 9.84375C25.212 9.84375 25.8136 9.38492 26.04 8.75H27.2344V7.65625H26.04C25.8136 7.02133 25.212 6.5625 24.5 6.5625C23.788 6.5625 23.1864 7.02133 22.96 7.65625H21.7656V8.75ZM24.5 7.65625C24.8013 7.65625 25.0469 7.90125 25.0469 8.20312C25.0469 8.505 24.8013 8.75 24.5 8.75C24.1987 8.75 23.9531 8.505 23.9531 8.20312C23.9531 7.90125 24.1987 7.65625 24.5 7.65625Z" fill="#55CB95"/>
<path d="M31.0625 7.65625H29.9688V8.75H31.0625V7.65625Z" fill="#55CB95"/>
<path d="M33.25 7.65625H32.1562V8.75H33.25V7.65625Z" fill="#55CB95"/>
<path d="M35.4375 7.65625H34.3438V8.75H35.4375V7.65625Z" fill="#55CB95"/>
<path d="M21.2188 2.73438H14.6562V3.82812H21.2188V2.73438Z" fill="#55CB95"/>
<path d="M23.4062 2.73438H22.3125V3.82812H23.4062V2.73438Z" fill="#55CB95"/>
<path d="M17.3906 7.65625H13.5625V8.75H17.3906V7.65625Z" fill="#55CB95"/>
<path d="M4.394 47.971H2.106V51H1.105V42.004H4.394C5.37333 42.004 6.097 42.2423 6.565 42.719C7.033 43.1957 7.267 43.9237 7.267 44.903C7.267 46.9483 6.30933 47.971 4.394 47.971ZM2.106 47.087H4.381C5.62033 47.087 6.24 46.359 6.24 44.903C6.24 44.2097 6.09267 43.7027 5.798 43.382C5.50333 43.0527 5.031 42.888 4.381 42.888H2.106V47.087ZM13.0113 50.194L13.3883 50.155L13.4143 50.922C12.4263 51.0607 11.5813 51.13 10.8793 51.13C9.94327 51.13 9.28027 50.8613 8.89027 50.324C8.50027 49.778 8.30527 48.933 8.30527 47.789C8.30527 45.5097 9.21094 44.37 11.0223 44.37C11.8976 44.37 12.5519 44.617 12.9853 45.111C13.4186 45.5963 13.6353 46.3633 13.6353 47.412L13.5833 48.153H9.29327C9.29327 48.8723 9.42327 49.4053 9.68327 49.752C9.94327 50.0987 10.3939 50.272 11.0353 50.272C11.6853 50.272 12.3439 50.246 13.0113 50.194ZM12.6603 47.373C12.6603 46.5757 12.5303 46.0123 12.2703 45.683C12.0189 45.3537 11.6029 45.189 11.0223 45.189C10.4503 45.189 10.0169 45.3623 9.72227 45.709C9.43627 46.0557 9.28894 46.6103 9.28027 47.373H12.6603ZM17.1958 45.241C16.2511 45.241 15.7788 45.5703 15.7788 46.229C15.7788 46.5323 15.8871 46.749 16.1038 46.879C16.3204 47.0003 16.8144 47.1303 17.5858 47.269C18.3571 47.399 18.9031 47.5853 19.2238 47.828C19.5444 48.0707 19.7048 48.5257 19.7048 49.193C19.7048 49.8603 19.4881 50.35 19.0548 50.662C18.6301 50.974 18.0061 51.13 17.1828 51.13C16.6454 51.13 16.0128 51.0693 15.2848 50.948L14.8948 50.883L14.9468 50.038C15.9348 50.1853 16.6801 50.259 17.1828 50.259C17.6854 50.259 18.0668 50.181 18.3268 50.025C18.5954 49.8603 18.7298 49.5917 18.7298 49.219C18.7298 48.8377 18.6171 48.582 18.3918 48.452C18.1664 48.3133 17.6724 48.1833 16.9098 48.062C16.1471 47.9407 15.6054 47.763 15.2848 47.529C14.9641 47.295 14.8038 46.8617 14.8038 46.229C14.8038 45.5963 15.0248 45.1283 15.4668 44.825C15.9174 44.5217 16.4764 44.37 17.1438 44.37C17.6724 44.37 18.3354 44.4307 19.1328 44.552L19.4968 44.617L19.4708 45.449C18.5088 45.3103 17.7504 45.241 17.1958 45.241ZM25.7867 46.463V49.791C25.8127 50.1117 26.0641 50.3023 26.5407 50.363L26.5017 51.13C25.8171 51.13 25.3014 50.9567 24.9547 50.61C24.1747 50.9567 23.3947 51.13 22.6147 51.13C22.0167 51.13 21.5617 50.961 21.2497 50.623C20.9377 50.285 20.7817 49.7997 20.7817 49.167C20.7817 48.5343 20.9421 48.0707 21.2627 47.776C21.5834 47.4727 22.0861 47.2863 22.7707 47.217L24.8117 47.022V46.463C24.8117 46.021 24.7164 45.7047 24.5257 45.514C24.3351 45.3233 24.0751 45.228 23.7457 45.228C23.0524 45.228 22.3331 45.2713 21.5877 45.358L21.1847 45.397L21.1457 44.656C22.0991 44.4653 22.9441 44.37 23.6807 44.37C24.4174 44.37 24.9504 44.539 25.2797 44.877C25.6177 45.215 25.7867 45.7437 25.7867 46.463ZM21.7827 49.115C21.7827 49.9123 22.1121 50.311 22.7707 50.311C23.3601 50.311 23.9407 50.2113 24.5127 50.012L24.8117 49.908V47.763L22.8877 47.945C22.4977 47.9797 22.2161 48.0923 22.0427 48.283C21.8694 48.4737 21.7827 48.751 21.7827 49.115ZM28.6854 51H27.7104V44.5H28.6724V44.955C29.3744 44.565 30.0461 44.37 30.6874 44.37C31.5541 44.37 32.1347 44.604 32.4294 45.072C32.7327 45.54 32.8844 46.372 32.8844 47.568V51H31.9224V47.594C31.9224 46.6927 31.8314 46.0773 31.6494 45.748C31.4761 45.41 31.0991 45.241 30.5184 45.241C30.2411 45.241 29.9464 45.2843 29.6344 45.371C29.3311 45.449 29.0971 45.527 28.9324 45.605L28.6854 45.722V51ZM39.2818 46.463V49.791C39.3078 50.1117 39.5592 50.3023 40.0358 50.363L39.9968 51.13C39.3122 51.13 38.7965 50.9567 38.4498 50.61C37.6698 50.9567 36.8898 51.13 36.1098 51.13C35.5118 51.13 35.0568 50.961 34.7448 50.623C34.4328 50.285 34.2768 49.7997 34.2768 49.167C34.2768 48.5343 34.4372 48.0707 34.7578 47.776C35.0785 47.4727 35.5812 47.2863 36.2658 47.217L38.3068 47.022V46.463C38.3068 46.021 38.2115 45.7047 38.0208 45.514C37.8302 45.3233 37.5702 45.228 37.2408 45.228C36.5475 45.228 35.8282 45.2713 35.0828 45.358L34.6798 45.397L34.6408 44.656C35.5942 44.4653 36.4392 44.37 37.1758 44.37C37.9125 44.37 38.4455 44.539 38.7748 44.877C39.1128 45.215 39.2818 45.7437 39.2818 46.463ZM35.2778 49.115C35.2778 49.9123 35.6072 50.311 36.2658 50.311C36.8552 50.311 37.4358 50.2113 38.0078 50.012L38.3068 49.908V47.763L36.3828 47.945C35.9928 47.9797 35.7112 48.0923 35.5378 48.283C35.3645 48.4737 35.2778 48.751 35.2778 49.115ZM42.1805 51H41.2055V44.5H42.1675V44.955C42.8695 44.565 43.5412 44.37 44.1825 44.37C45.0492 44.37 45.6299 44.604 45.9245 45.072C46.2279 45.54 46.3795 46.372 46.3795 47.568V51H45.4175V47.594C45.4175 46.6927 45.3265 46.0773 45.1445 45.748C44.9712 45.41 44.5942 45.241 44.0135 45.241C43.7362 45.241 43.4415 45.2843 43.1295 45.371C42.8262 45.449 42.5922 45.527 42.4275 45.605L42.1805 45.722V51Z" fill="#55CB95"/>
</svg>
