<svg width="75" height="72" viewBox="0 0 75 72" fill="none" xmlns="http://www.w3.org/2000/svg">
<rect y="0.478928" width="75" height="70.977" rx="10" fill="#E0F7EF"/>
<g clip-path="url(#clip0)">
<path d="M51.1948 25.9113L60.7057 34.6518C61.7179 35.582 61.4523 37.1801 60.1873 37.7713L47.777 43.5719L49.9723 26.3208C50.0439 25.7582 50.7653 25.5165 51.1948 25.9113Z" fill="#978ECB"/>
<path d="M24.8052 25.9113L15.2943 34.6518C14.2822 35.582 14.5478 37.18 15.8127 37.7712L28.223 43.5719L26.0278 26.3208C25.9562 25.7582 25.2348 25.5165 24.8052 25.9113Z" fill="#978ECB"/>
<path d="M38.1021 31.3304C41.5022 31.3304 44.2585 28.722 44.2585 25.5043V23.0993L43.7457 23.3408L41.6947 24.3067C39.432 25.3723 36.7723 25.3723 34.5096 24.3067L31.9488 23.1008L31.9458 23.0993V25.5043C31.9458 28.722 34.702 31.3304 38.1021 31.3304Z" fill="#978ECB"/>
<path d="M47.8069 25.5463L38.8089 19.3466V17.0819C40.1983 17.0068 41.3042 15.9148 41.3042 14.5836V14.4076C41.3042 12.9897 40.0835 11.8363 38.583 11.8363H38.4269C36.9264 11.8363 35.7057 12.9897 35.7057 14.4076C35.7057 14.8033 36.0447 15.1242 36.4629 15.1242C36.8812 15.1242 37.2202 14.8033 37.2202 14.4076C37.2202 13.78 37.7615 13.2695 38.4268 13.2695H38.5829C39.2483 13.2695 39.7896 13.78 39.7896 14.4076V14.5836C39.7896 15.1731 39.281 15.6527 38.6559 15.6527C37.9051 15.6527 37.2943 16.2303 37.2943 16.94V19.2814L29.1061 25.1135C28.7719 25.3515 28.7049 25.8008 28.9564 26.117C29.2077 26.4332 29.6826 26.4968 30.0167 26.2586L38.0075 20.5673L46.9155 26.7049C47.0499 26.7976 47.2059 26.8422 47.3606 26.8422C47.5945 26.8422 47.8252 26.74 47.9734 26.5473C48.2195 26.2274 48.145 25.7792 47.8069 25.5463Z" fill="#E19974"/>
<path d="M50.2644 27.2831L51.7789 41.6421V57.2421C51.7789 58.2979 50.8742 59.1532 49.7596 59.1532H26.2403C25.1257 59.1532 24.221 58.2979 24.221 57.2421V27.2965C24.221 26.513 24.7268 25.8087 25.4962 25.5201L31.946 23.0989V25.5039C31.946 28.722 34.7024 31.3305 38.1019 31.3305C41.5025 31.3305 44.2589 28.722 44.2589 25.5039V23.0989L50.5208 25.5135C51.2811 25.8068 50.2644 26.5063 50.2644 27.2831Z" fill="#ACA6D6"/>
<path d="M50.5209 25.5136L48.3107 24.6613C48.589 24.9924 48.75 25.4085 48.75 25.8499V38.0907C48.75 48.9317 39.4636 57.72 28.0081 57.72H24.2873C24.5119 58.544 25.3003 59.1533 26.2404 59.1533H49.7597C50.8749 59.1533 51.779 58.2977 51.779 57.2423V27.2831C51.7789 26.5063 51.2811 25.8068 50.5209 25.5136Z" fill="#978ECB"/>
<path d="M38.288 40.8428L36.1717 41.7037C36.0161 41.767 35.8977 41.8917 35.8476 42.0448L35.1668 44.1275C35.0079 44.6136 34.2953 44.6494 34.083 44.1819L33.1732 42.1791C33.1063 42.0319 32.9746 41.9198 32.8128 41.8724L30.6121 41.2281C30.0984 41.0778 30.0606 40.4034 30.5546 40.2024L32.6709 39.3415C32.8265 39.2782 32.9449 39.1535 32.995 39.0004L33.6758 36.9178C33.8347 36.4316 34.5473 36.3959 34.7596 36.8633L35.6693 38.8661C35.7362 39.0133 35.868 39.1255 36.0298 39.1729L38.2305 39.8171C38.7442 39.9675 38.782 40.6418 38.288 40.8428Z" fill="white"/>
<path d="M43.5791 50.8122L41.8826 51.5023C41.7579 51.5531 41.6629 51.653 41.6227 51.7757L41.077 53.4452C40.9497 53.835 40.3784 53.8636 40.2082 53.4889L39.4789 51.8834C39.4253 51.7654 39.3197 51.6754 39.19 51.6375L37.4259 51.121C37.014 51.0005 36.9838 50.4599 37.3798 50.2988L39.0763 49.6086C39.201 49.5579 39.296 49.458 39.336 49.3351L39.8817 47.6656C40.0091 47.2759 40.5803 47.2472 40.7506 47.622L41.4799 49.2275C41.5335 49.3455 41.639 49.4354 41.7688 49.4733L43.533 49.9897C43.9447 50.1104 43.9751 50.6511 43.5791 50.8122Z" fill="white"/>
</g>
<defs>
<clipPath id="clip0">
<rect width="50" height="47.318" fill="white" transform="translate(13 11.8353)"/>
</clipPath>
</defs>
</svg>
