<svg width="75" height="72" viewBox="0 0 75 72" fill="none" xmlns="http://www.w3.org/2000/svg">
<rect y="0.203064" width="75" height="70.977" rx="10" fill="#E0F7EF"/>
<g clip-path="url(#clip0)">
<path d="M57.7944 34.2182C57.6268 34.2182 57.4583 34.1648 57.3194 34.0555C57.0038 33.8071 56.9608 33.3635 57.2233 33.0649L60.665 29.1496C61.2121 28.5273 61.5133 27.7388 61.5133 26.9293C61.5133 25.0152 59.8677 23.4578 57.845 23.4578H49.8202C46.3539 23.4578 43.5338 20.789 43.5338 17.5086C43.5338 14.2282 46.3539 11.5594 49.8202 11.5594H62.2566C62.6672 11.5594 63 11.8743 63 12.2628C63 12.6512 62.6672 12.9662 62.2566 12.9662H49.8202C47.1735 12.9662 45.0204 15.0039 45.0204 17.5085C45.0204 20.0131 47.1735 22.0509 49.8202 22.0509H57.845C60.6875 22.0509 62.9999 24.2393 62.9999 26.9292C62.9999 28.0667 62.5766 29.1748 61.8078 30.0492L58.3661 33.9645C58.2192 34.1318 58.0076 34.2182 57.7944 34.2182Z" fill="#A79BA7"/>
<path d="M56.276 37.0133L54.174 35.0247L56.6732 32.6605C57.2536 32.1116 58.1942 32.1116 58.7745 32.6606C59.3551 33.2099 59.3551 34.1007 58.7744 34.6499L56.276 37.0133Z" fill="#B5ADB6"/>
<path d="M27.1191 44.8733L25.0178 46.8625L22.5196 44.4973C21.9396 43.9481 21.9396 43.0579 22.5197 42.5088C23.1001 41.9594 24.0414 41.9594 24.6218 42.5089L27.1191 44.8733Z" fill="#B5ADB6"/>
<path d="M48.2393 50.2172H40.0693V47.5168C40.0693 47.1053 40.4219 46.7717 40.8566 46.7717H47.452C47.8868 46.7717 48.2393 47.1054 48.2393 47.5168V50.2172Z" fill="#B5ADB6"/>
<path d="M62.2228 50.965C60.6181 45.753 59.0135 40.5409 57.4088 35.3289C57.0957 34.3121 56.0742 33.6422 54.9577 33.7193C49.5689 34.0915 42.4284 35.2971 34.8932 38.7554C31.9629 40.1003 29.4199 41.5806 27.247 43.0395C22.9585 46.1036 19.3723 49.9593 16.7054 54.3731L15.9531 55.6182L14.9574 57.0251L56.8865 55.6182L57.4594 54.4584C58.1411 53.078 59.6061 52.1959 61.2167 52.1959C61.8969 52.1959 62.3939 51.5879 62.2228 50.965ZM53.8847 49.0664L39.1916 49.9804C37.1319 50.1085 35.3867 48.5626 35.3867 46.6098V46.6097C35.3867 45.3822 36.0895 44.2506 37.2246 43.6559C38.8905 42.7831 40.7784 41.9069 42.8853 41.0989C46.0272 39.894 48.9566 39.109 51.5091 38.5902C52.3454 38.4202 53.1732 38.9075 53.3754 39.6939L55.3117 47.2276C55.5428 48.1269 54.8606 49.0057 53.8847 49.0664Z" fill="#FEE97D"/>
<path d="M62.2228 50.965C60.6181 45.7529 59.0135 40.5409 57.4088 35.3289C57.0966 34.3148 56.0792 33.6419 54.9661 33.7187C54.7727 33.732 54.5763 33.7468 54.3783 33.7623C54.399 33.8147 54.4189 33.8676 54.4356 33.922C56.0402 39.1341 57.6448 44.3461 59.2495 49.5582C59.4204 50.1802 58.9249 50.7874 58.2459 50.789C56.6675 50.7926 55.2111 51.5834 54.5428 52.9367C54.1587 53.7144 53.3336 54.2113 52.4265 54.2113H16.806C16.7728 54.2655 16.7382 54.3188 16.7053 54.3731L15.953 55.6182L14.9573 57.0251L56.8864 55.6182L57.516 54.3436C58.2091 53.0379 59.6407 52.1995 61.2192 52.1959C61.8981 52.1943 62.3936 51.5871 62.2228 50.965Z" fill="#FEDF30"/>
<path d="M57.1481 58.8774H13C13 57.0774 14.5419 55.6182 16.4439 55.6182H57.1481C58.0992 55.6182 58.8701 56.3478 58.8701 57.2478C58.8701 58.1478 58.0992 58.8774 57.1481 58.8774Z" fill="#B5ADB6"/>
<path d="M57.1482 55.6182H54.1749C55.126 55.6182 55.8969 56.3477 55.8969 57.2478C55.8969 58.1478 55.126 58.8774 54.1749 58.8774H57.1482C58.0992 58.8774 58.8701 58.1478 58.8701 57.2478C58.8701 56.3477 58.0992 55.6182 57.1482 55.6182Z" fill="#A79BA7"/>
<path d="M38.4757 49.957C38.4755 49.957 38.4754 49.9569 38.4753 49.9569C36.7431 49.7359 35.3867 48.3313 35.3867 46.61V46.6099C35.3867 45.3823 36.0895 44.2508 37.2246 43.6561C38.8905 42.7832 40.7784 41.9071 42.8853 41.099C46.0272 39.8942 48.9565 39.1092 51.5091 38.5904C51.9135 38.5081 52.3152 38.5807 52.6459 38.7655C52.6463 38.7654 52.6468 38.7653 52.6472 38.7652C51.4045 37.2229 50.3745 37.0499 49.9015 37.0391C49.6616 37.0337 49.2865 37.0851 48.5358 37.1835C46.4932 37.4511 45.4406 37.5719 39.912 39.6922C37.8052 40.5002 35.9174 41.3764 34.2514 42.2492C33.1162 42.8439 32.4135 43.9755 32.4135 45.203C32.5214 45.8022 32.7843 46.7233 33.4894 47.6193C35.1969 49.7894 38.0248 49.9398 38.4757 49.957Z" fill="#FEDF30"/>
</g>
<defs>
<clipPath id="clip0">
<rect width="50" height="47.318" fill="white" transform="translate(13 11.5594)"/>
</clipPath>
</defs>
</svg>
