<svg width="75" height="72" viewBox="0 0 75 72" fill="none" xmlns="http://www.w3.org/2000/svg">
<rect y="0.478928" width="75" height="70.977" rx="10" fill="#E0F7EF"/>
<g clip-path="url(#clip0)">
<path d="M46.5318 25.7102C46.1213 25.7102 45.7885 25.3952 45.7885 25.0068V20.385C45.7885 19.9965 46.1212 19.6815 46.5318 19.6815C46.9424 19.6815 47.2751 19.9965 47.2751 20.385V25.0068C47.2751 25.3953 46.9424 25.7102 46.5318 25.7102Z" fill="#F07281"/>
<path d="M54.7858 25.7102C54.3753 25.7102 54.0425 25.3952 54.0425 25.0068V20.385C54.0425 19.9965 54.3752 19.6815 54.7858 19.6815C55.1964 19.6815 55.5291 19.9965 55.5291 20.385V25.0068C55.5291 25.3953 55.1964 25.7102 54.7858 25.7102Z" fill="#F07281"/>
<path d="M58.4885 59.1535C59.0523 59.1535 59.4442 58.6284 59.2599 58.1255C57.3808 53.0019 57.2591 48.9462 57.5497 46.0794C57.989 41.7454 59.6177 37.6874 57.1669 34.5379C56.2736 33.3901 55.1781 32.7994 55.0614 31.3821C54.8863 29.2576 57.1695 28.4181 56.9756 26.2427C56.86 24.9467 55.8767 23.3034 54.2958 23.0869C52.8957 22.895 51.3198 23.8624 50.659 25.5214C49.9983 23.8623 48.4223 22.8949 47.0222 23.0869C45.4413 23.3035 44.458 24.9468 44.3424 26.2427C44.1485 28.4181 46.4316 29.2576 46.2565 31.3821C46.1397 32.7994 45.0442 33.3901 44.151 34.5379C41.7001 37.6874 43.3289 41.7454 43.7682 46.0794C44.0587 48.9462 43.9371 53.0019 42.0579 58.1255C41.8735 58.6284 42.2655 59.1535 42.8293 59.1535H58.4885Z" fill="#F58A97"/>
<path d="M59.2597 58.1252C57.3807 53.0016 57.259 48.9459 57.5496 46.0791C57.9889 41.7451 59.6176 37.6872 57.1668 34.5376C56.2735 33.3898 55.178 32.7991 55.0613 31.3818C54.8862 29.2572 57.1693 28.4177 56.9754 26.2423C56.8598 24.9463 55.8765 23.3031 54.2956 23.0865C53.6646 23 52.9981 23.1496 52.3955 23.4913C53.3421 24.1062 53.9155 25.2716 54.0021 26.2423C54.1961 28.4177 51.913 29.2572 52.0881 31.3818C52.2048 32.7991 53.3003 33.3897 54.1935 34.5376C56.6444 37.6872 55.0156 41.7451 54.5764 46.0791C54.2858 48.9459 54.4074 53.0016 56.2865 58.1252C56.471 58.628 56.0789 59.1533 55.5151 59.1533H58.4884C59.0521 59.1533 59.4442 58.6281 59.2597 58.1252Z" fill="#F07281"/>
<path d="M46.2225 30.6784C46.2624 30.898 46.277 31.1307 46.2563 31.3818C46.235 31.6412 46.1806 31.8727 46.1008 32.0852H55.2168C55.1371 31.8728 55.0826 31.6413 55.0613 31.3818C55.0406 31.1307 55.0553 30.898 55.0951 30.6784H46.2225Z" fill="#F07281"/>
<path d="M59.9049 21.3667L51.3343 18.4727V17.0935C52.7389 17.0286 53.8603 15.9303 53.8603 14.5895V14.4119C53.8603 12.9911 52.635 11.8353 51.1288 11.8353H50.9708C49.4647 11.8353 48.2393 12.9911 48.2393 14.4119C48.2393 14.8004 48.572 15.1153 48.9825 15.1153C49.3931 15.1153 49.7259 14.8003 49.7259 14.4119C49.7259 13.7669 50.2844 13.2421 50.9708 13.2421H51.1288C51.8152 13.2421 52.3736 13.7669 52.3736 14.4119V14.5896C52.3736 15.1961 51.8484 15.6896 51.2027 15.6896C50.4556 15.6896 49.8477 16.2637 49.8477 16.9694V18.5185L41.4128 21.3668C41.0262 21.4974 40.8245 21.8998 40.9625 22.2657C41.1004 22.6316 41.5257 22.8221 41.9124 22.6919L50.6588 19.7385L59.4053 22.6919C59.4878 22.7198 59.5722 22.733 59.6551 22.733C59.9605 22.733 60.2466 22.5535 60.3551 22.2657C60.4932 21.8998 60.2916 21.4973 59.9049 21.3667Z" fill="#E19974"/>
<path d="M21.214 25.7102C20.8035 25.7102 20.4708 25.3952 20.4708 25.0068V20.385C20.4708 19.9965 20.8035 19.6815 21.214 19.6815C21.6246 19.6815 21.9574 19.9965 21.9574 20.385V25.0068C21.9574 25.3953 21.6246 25.7102 21.214 25.7102Z" fill="#978ECB"/>
<path d="M29.468 25.7102C29.0575 25.7102 28.7247 25.3952 28.7247 25.0068V20.385C28.7247 19.9965 29.0574 19.6815 29.468 19.6815C29.8786 19.6815 30.2113 19.9965 30.2113 20.385V25.0068C30.2114 25.3953 29.8787 25.7102 29.468 25.7102Z" fill="#978ECB"/>
<path d="M33.1707 59.1535C33.7344 59.1535 34.1264 58.6284 33.9421 58.1255C32.063 53.0019 31.9413 48.9462 32.2319 46.0794C32.6712 41.7454 34.2999 37.6874 31.8491 34.5379C30.9558 33.3901 29.8603 32.7994 29.7436 31.3821C29.5685 29.2576 31.8517 28.4181 31.6578 26.2427C31.5422 24.9467 30.5589 23.3034 28.978 23.0869C27.5779 22.895 26.0019 23.8624 25.3412 25.5214C24.6804 23.8623 23.1045 22.8949 21.7044 23.0869C20.1235 23.3035 19.1402 24.9468 19.0246 26.2427C18.8306 28.4181 21.1137 29.2576 20.9386 31.3821C20.8219 32.7994 19.7263 33.3901 18.8332 34.5379C16.3823 37.6874 18.0111 41.7454 18.4504 46.0794C18.7409 48.9462 18.6193 53.0019 16.7401 58.1255C16.5556 58.6284 16.9477 59.1535 17.5115 59.1535H33.1707Z" fill="#ACA6D6"/>
<path d="M33.9421 58.1252C32.063 53.0016 31.9413 48.9459 32.2319 46.0791C32.6712 41.7451 34.2999 37.6872 31.8491 34.5376C30.9558 33.3898 29.8603 32.7991 29.7436 31.3818C29.5685 29.2572 31.8516 28.4177 31.6577 26.2423C31.5421 24.9463 30.5588 23.3031 28.9779 23.0865C28.347 23 27.6805 23.1496 27.0778 23.4913C28.0244 24.1062 28.5978 25.2716 28.6845 26.2423C28.8784 28.4177 26.5953 29.2572 26.7704 31.3818C26.8871 32.7991 27.9826 33.3897 28.8759 34.5376C31.3267 37.6872 29.6979 41.7451 29.2587 46.0791C28.9681 48.9459 29.0897 53.0016 30.9688 58.1252C31.1533 58.628 30.7612 59.1533 30.1974 59.1533H33.1707C33.7345 59.1533 34.1264 58.6281 33.9421 58.1252Z" fill="#978ECB"/>
<path d="M20.9049 30.6784C20.9447 30.898 20.9594 31.1307 20.9386 31.3818C20.9173 31.6412 20.8629 31.8727 20.7831 32.0852H29.899C29.8193 31.8728 29.7648 31.6413 29.7435 31.3818C29.7228 31.1307 29.7374 30.898 29.7773 30.6784H20.9049Z" fill="#978ECB"/>
<path d="M34.5872 21.3667L26.0165 18.4727V17.0935C27.4211 17.0286 28.5425 15.9303 28.5425 14.5895V14.4119C28.5425 12.9911 27.3172 11.8353 25.811 11.8353H25.653C24.1469 11.8353 22.9215 12.9911 22.9215 14.4119C22.9215 14.8004 23.2542 15.1153 23.6647 15.1153C24.0753 15.1153 24.4081 14.8003 24.4081 14.4119C24.4081 13.7669 24.9665 13.2421 25.653 13.2421H25.811C26.4974 13.2421 27.0558 13.7669 27.0558 14.4119V14.5896C27.0558 15.1961 26.5306 15.6896 25.8849 15.6896C25.1378 15.6896 24.5299 16.2637 24.5299 16.9694V18.5185L16.095 21.3668C15.7084 21.4974 15.5067 21.8998 15.6448 22.2657C15.7827 22.6316 16.208 22.8221 16.5946 22.6919L25.341 19.7385L34.0875 22.6919C34.17 22.7198 34.2544 22.733 34.3373 22.733C34.6427 22.733 34.9288 22.5535 35.0373 22.2657C35.1754 21.8998 34.9738 21.4973 34.5872 21.3667Z" fill="#E19974"/>
</g>
<defs>
<clipPath id="clip0">
<rect width="50" height="47.318" fill="white" transform="translate(13 11.8353)"/>
</clipPath>
</defs>
</svg>
